<?xml version="1.0" encoding="UTF-8" standalone="no"?><!DOCTYPE svg PUBLIC "-//W3C//DTD SVG 1.1//EN" "http://www.w3.org/Graphics/SVG/1.1/DTD/svg11.dtd"><svg width="100%" height="100%" viewBox="0 0 192 192" version="1.1" xmlns="http://www.w3.org/2000/svg" xmlns:xlink="http://www.w3.org/1999/xlink" xml:space="preserve" xmlns:serif="http://www.serif.com/" style="fill-rule:evenodd;clip-rule:evenodd;stroke-linejoin:round;stroke-miterlimit:2;"><g id="Layer-1" serif:id="Layer 1"><path d="M78,122.169l0,-52.338l46,26.17l-46,26.168Zm102.322,-68.806c-2.024,-7.622 -7.988,-13.624 -15.56,-15.661c-13.725,-3.702 -68.762,-3.702 -68.762,-3.702c0,-0 -55.037,-0 -68.762,3.702c-7.572,2.037 -13.536,8.039 -15.56,15.661c-3.678,13.814 -3.678,42.637 -3.678,42.637c0,-0 0,28.822 3.678,42.637c2.024,7.622 7.988,13.624 15.56,15.662c13.725,3.701 68.762,3.701 68.762,3.701c0,-0 55.037,-0 68.762,-3.701c7.572,-2.038 13.536,-8.04 15.56,-15.662c3.678,-13.815 3.678,-42.637 3.678,-42.637c0,-0 0,-28.823 -3.678,-42.637" style="fill:#fff;fill-rule:nonzero;"/></g></svg>