<?xml version="1.0" encoding="utf-8"?>
<!-- Generator: Adobe Illustrator 21.1.0, SVG Export Plug-In . SVG Version: 6.00 Build 0)  -->
<svg version="1.1" id="Layer_1" xmlns="http://www.w3.org/2000/svg" xmlns:xlink="http://www.w3.org/1999/xlink" x="0px" y="0px"
	 viewBox="0 0 256 256" style="enable-background:new 0 0 256 256;" xml:space="preserve">
<g id="R_outlines">
	<g>
		<path d="M98.1,218.5H62.2V39.3H134c6.6,0,12.9,0.9,19,2.6c6.1,1.7,11.8,4.1,17.1,7.2c5.3,3.1,10.1,6.9,14.5,11.2
			s8.1,9.2,11.2,14.6c3.1,5.3,5.5,11,7.2,17.1s2.6,12.4,2.6,19c0,6.2-0.8,12.2-2.3,18s-3.8,11.4-6.6,16.6s-6.4,10.1-10.6,14.5
			c-4.2,4.4-8.8,8.2-14,11.5l19.9,46.9h-38.1l-15.6-36.1l-40.1,0.2L98.1,218.5L98.1,218.5z M98.1,75.2V147H134
			c4.9,0,9.5-0.9,13.9-2.8c4.3-1.9,8.1-4.4,11.4-7.7s5.8-7.1,7.7-11.4s2.8-9,2.8-13.9s-0.9-9.6-2.8-13.9s-4.4-8.2-7.7-11.4
			s-7-5.8-11.4-7.7c-4.3-1.9-9-2.8-13.9-2.8H98.1V75.2z"/>
	</g>
</g>
</svg>
